<svg width="38" height="48" viewBox="0 0 38 48" fill="none" xmlns="http://www.w3.org/2000/svg">
<path d="M0 45.6523C0.592887 47.6533 2.22333 48.3944 4.66899 47.8015L4.37254 42.2432C4.21679 40.4782 4.26591 39.4883 4.44666 37.7225C5.56089 33.0957 6.69401 30.9994 9.56031 28.088V8.89331H21.4181C28.0139 9.33798 31.3489 18.4536 21.4181 22.8262C16.0655 24.2516 13.5131 25.6973 9.56031 29.1256C6.37243 32.9188 4.93472 35.8697 4.37254 42.2432L4.66899 47.8015C6.37354 47.2087 7.26776 46.2782 8.22631 44.6148C8.82008 43.4468 9.05697 42.7138 9.33798 41.2798C11.8577 34.4616 15.435 31.58 22.7521 30.756C28.8237 29.3564 32.0504 28.2811 35.4204 22.4556C39.9458 12.4506 35.4204 1.40811 22.4556 0H2.07511C0.554259 0.368012 0.213906 1.01964 0 2.51977V45.6523Z" fill="url(#paint0_radial_1499_1515)"/>
<path d="M18.157 39.5003H10.0789L9.26367 41.7983H18.5275C20.9732 47.1343 28.3843 44.6146 27.7914 39.5003C27.1244 34.2391 20.0098 33.4238 18.157 39.5003Z" fill="#1EAE53"/>
<defs>
<radialGradient id="paint0_radial_1499_1515" cx="0" cy="0" r="1" gradientUnits="userSpaceOnUse" gradientTransform="translate(13.34 40.6128) rotate(-118.772) scale(18.9389 22.6827)">
<stop offset="0.320773" stop-color="#1EAE53"/>
<stop offset="1" stop-color="#E2E9FF"/>
</radialGradient>
</defs>
</svg>
