<svg width="243" height="62" viewBox="0 0 243 62" fill="none" xmlns="http://www.w3.org/2000/svg">
<path d="M26.8315 25.056C26.8315 26.8453 26.4208 28.488 25.5995 29.984C24.7781 31.4507 23.5168 32.6387 21.8155 33.548C20.1141 34.4573 18.0021 34.912 15.4795 34.912H10.8155V46H3.29148V15.112H15.4795C17.9435 15.112 20.0261 15.5373 21.7275 16.388C23.4288 17.2387 24.7048 18.412 25.5555 19.908C26.4061 21.404 26.8315 23.12 26.8315 25.056ZM14.9075 28.928C16.3448 28.928 17.4155 28.5907 18.1195 27.916C18.8235 27.2413 19.1755 26.288 19.1755 25.056C19.1755 23.824 18.8235 22.8707 18.1195 22.196C17.4155 21.5213 16.3448 21.184 14.9075 21.184H10.8155V28.928H14.9075ZM36.2725 25.54C37.1525 24.1907 38.2525 23.1347 39.5725 22.372C40.8925 21.58 42.3592 21.184 43.9725 21.184V29.148H41.9045C40.0272 29.148 38.6192 29.5587 37.6805 30.38C36.7418 31.172 36.2725 32.58 36.2725 34.604V46H28.7485V21.448H36.2725V25.54ZM56.7448 46.352C54.3395 46.352 52.1688 45.8387 50.2328 44.812C48.3262 43.7853 46.8155 42.3187 45.7008 40.412C44.6155 38.5053 44.0728 36.276 44.0728 33.724C44.0728 31.2013 44.6302 28.9867 45.7448 27.08C46.8595 25.144 48.3848 23.6627 50.3208 22.636C52.2568 21.6093 54.4275 21.096 56.8328 21.096C59.2382 21.096 61.4088 21.6093 63.3448 22.636C65.2808 23.6627 66.8062 25.144 67.9208 27.08C69.0355 28.9867 69.5928 31.2013 69.5928 33.724C69.5928 36.2467 69.0208 38.476 67.8768 40.412C66.7622 42.3187 65.2222 43.7853 63.2568 44.812C61.3208 45.8387 59.1502 46.352 56.7448 46.352ZM56.7448 39.84C58.1822 39.84 59.3995 39.312 60.3968 38.256C61.4235 37.2 61.9368 35.6893 61.9368 33.724C61.9368 31.7587 61.4382 30.248 60.4408 29.192C59.4728 28.136 58.2702 27.608 56.8328 27.608C55.3662 27.608 54.1488 28.136 53.1808 29.192C52.2128 30.2187 51.7288 31.7293 51.7288 33.724C51.7288 35.6893 52.1982 37.2 53.1368 38.256C54.1048 39.312 55.3075 39.84 56.7448 39.84ZM70.0884 33.724C70.0884 31.172 70.6018 28.9427 71.6284 27.036C72.6844 25.1293 74.1364 23.6627 75.9844 22.636C77.8618 21.6093 80.0031 21.096 82.4084 21.096C85.4884 21.096 88.0551 21.9027 90.1084 23.516C92.1911 25.1293 93.5551 27.4027 94.2004 30.336H86.1924C85.5178 28.4587 84.2124 27.52 82.2764 27.52C80.8978 27.52 79.7978 28.0627 78.9764 29.148C78.1551 30.204 77.7444 31.7293 77.7444 33.724C77.7444 35.7187 78.1551 37.2587 78.9764 38.344C79.7978 39.4 80.8978 39.928 82.2764 39.928C84.2124 39.928 85.5178 38.9893 86.1924 37.112H94.2004C93.5551 39.9867 92.1911 42.2453 90.1084 43.888C88.0258 45.5307 85.4591 46.352 82.4084 46.352C80.0031 46.352 77.8618 45.8387 75.9844 44.812C74.1364 43.7853 72.6844 42.3187 71.6284 40.412C70.6018 38.5053 70.0884 36.276 70.0884 33.724ZM107.401 46.352C104.996 46.352 102.825 45.8387 100.889 44.812C98.9824 43.7853 97.4717 42.3187 96.3571 40.412C95.2717 38.5053 94.7291 36.276 94.7291 33.724C94.7291 31.2013 95.2864 28.9867 96.4011 27.08C97.5157 25.144 99.0411 23.6627 100.977 22.636C102.913 21.6093 105.084 21.096 107.489 21.096C109.894 21.096 112.065 21.6093 114.001 22.636C115.937 23.6627 117.462 25.144 118.577 27.08C119.692 28.9867 120.249 31.2013 120.249 33.724C120.249 36.2467 119.677 38.476 118.533 40.412C117.418 42.3187 115.878 43.7853 113.913 44.812C111.977 45.8387 109.806 46.352 107.401 46.352ZM107.401 39.84C108.838 39.84 110.056 39.312 111.053 38.256C112.08 37.2 112.593 35.6893 112.593 33.724C112.593 31.7587 112.094 30.248 111.097 29.192C110.129 28.136 108.926 27.608 107.489 27.608C106.022 27.608 104.805 28.136 103.837 29.192C102.869 30.2187 102.385 31.7293 102.385 33.724C102.385 35.6893 102.854 37.2 103.793 38.256C104.761 39.312 105.964 39.84 107.401 39.84ZM137.201 21.184C140.075 21.184 142.363 22.1227 144.065 24C145.795 25.848 146.661 28.4 146.661 31.656V46H139.181V32.668C139.181 31.0253 138.755 29.7493 137.905 28.84C137.054 27.9307 135.91 27.476 134.473 27.476C133.035 27.476 131.891 27.9307 131.041 28.84C130.19 29.7493 129.765 31.0253 129.765 32.668V46H122.241V21.448H129.765V24.704C130.527 23.6187 131.554 22.768 132.845 22.152C134.135 21.5067 135.587 21.184 137.201 21.184ZM164.849 21.184C167.724 21.184 170.012 22.1227 171.713 24C173.444 25.848 174.309 28.4 174.309 31.656V46H166.829V32.668C166.829 31.0253 166.404 29.7493 165.553 28.84C164.702 27.9307 163.558 27.476 162.121 27.476C160.684 27.476 159.54 27.9307 158.689 28.84C157.838 29.7493 157.413 31.0253 157.413 32.668V46H149.889V21.448H157.413V24.704C158.176 23.6187 159.202 22.768 160.493 22.152C161.784 21.5067 163.236 21.184 164.849 21.184ZM200.682 33.328C200.682 34.032 200.638 34.7653 200.55 35.528H183.522C183.639 37.0533 184.123 38.2267 184.974 39.048C185.854 39.84 186.924 40.236 188.186 40.236C190.063 40.236 191.368 39.444 192.102 37.86H200.11C199.699 39.4733 198.951 40.9253 197.866 42.216C196.81 43.5067 195.475 44.5187 193.862 45.252C192.248 45.9853 190.444 46.352 188.45 46.352C186.044 46.352 183.903 45.8387 182.026 44.812C180.148 43.7853 178.682 42.3187 177.626 40.412C176.57 38.5053 176.042 36.276 176.042 33.724C176.042 31.172 176.555 28.9427 177.582 27.036C178.638 25.1293 180.104 23.6627 181.982 22.636C183.859 21.6093 186.015 21.096 188.45 21.096C190.826 21.096 192.938 21.5947 194.786 22.592C196.634 23.5893 198.071 25.012 199.098 26.86C200.154 28.708 200.682 30.864 200.682 33.328ZM192.982 31.348C192.982 30.0573 192.542 29.0307 191.662 28.268C190.782 27.5053 189.682 27.124 188.362 27.124C187.1 27.124 186.03 27.4907 185.15 28.224C184.299 28.9573 183.771 29.9987 183.566 31.348H192.982ZM201.155 33.724C201.155 31.172 201.668 28.9427 202.695 27.036C203.751 25.1293 205.203 23.6627 207.051 22.636C208.928 21.6093 211.07 21.096 213.475 21.096C216.555 21.096 219.122 21.9027 221.175 23.516C223.258 25.1293 224.622 27.4027 225.267 30.336H217.259C216.584 28.4587 215.279 27.52 213.343 27.52C211.964 27.52 210.864 28.0627 210.043 29.148C209.222 30.204 208.811 31.7293 208.811 33.724C208.811 35.7187 209.222 37.2587 210.043 38.344C210.864 39.4 211.964 39.928 213.343 39.928C215.279 39.928 216.584 38.9893 217.259 37.112H225.267C224.622 39.9867 223.258 42.2453 221.175 43.888C219.092 45.5307 216.526 46.352 213.475 46.352C211.07 46.352 208.928 45.8387 207.051 44.812C205.203 43.7853 203.751 42.3187 202.695 40.412C201.668 38.5053 201.155 36.276 201.155 33.724ZM240.975 39.62V46H237.147C234.419 46 232.293 45.34 230.767 44.02C229.242 42.6707 228.479 40.4853 228.479 37.464V27.696H225.487V21.448H228.479V15.464H236.003V21.448H240.931V27.696H236.003V37.552C236.003 38.2853 236.179 38.8133 236.531 39.136C236.883 39.4587 237.47 39.62 238.291 39.62H240.975Z" fill="white"/>
</svg>
